<?xml version="1.0" standalone="no"?>
<!DOCTYPE svg PUBLIC "-//W3C//DTD SVG 20010904//EN"
 "http://www.w3.org/TR/2001/REC-SVG-20010904/DTD/svg10.dtd">
<svg version="1.0" xmlns="http://www.w3.org/2000/svg"
 width="240.000000pt" height="240.000000pt" viewBox="0 0 240.000000 240.000000"
 preserveAspectRatio="xMidYMid meet">
<metadata>
Created by potrace 1.11, written by Peter Selinger 2001-2013
</metadata>
<g transform="translate(0.000000,240.000000) scale(0.100000,-0.100000)"
fill="#000000" stroke="none">
<path d="M725 2298 c-102 -93 -120 -99 -172 -61 -18 13 -33 21 -33 18 0 -3
-21 10 -47 30 -50 38 -89 53 -103 39 -11 -11 -36 -120 -36 -153 1 -18 -17 -42
-61 -84 -65 -63 -74 -79 -93 -164 -7 -29 -15 -53 -18 -54 -93 -11 -111 -17
-127 -42 -13 -21 -13 -30 0 -82 18 -69 32 -88 57 -81 11 2 18 1 16 -2 -2 -4
-12 -24 -22 -46 -16 -36 -16 -39 0 -57 21 -23 37 -24 55 -3 12 14 14 14 20 -3
5 -15 18 -20 55 -22 63 -3 110 -24 150 -66 18 -19 37 -35 43 -35 13 0 20 -59
24 -196 4 -115 18 -160 78 -245 16 -23 29 -63 42 -139 15 -79 20 -107 24 -125
2 -11 8 -42 13 -70 5 -27 12 -61 15 -75 10 -45 15 -240 6 -263 -12 -31 -60
-77 -81 -77 -35 0 -30 -70 5 -77 47 -8 132 -9 160 -1 53 13 72 39 67 89 -6 59
-6 72 3 164 6 70 12 203 14 328 1 26 5 37 16 37 18 0 45 -39 51 -76 2 -16 7
-40 10 -54 4 -14 8 -34 10 -45 11 -76 14 -93 18 -115 3 -14 8 -45 11 -70 3
-25 7 -56 10 -70 2 -14 7 -50 10 -81 5 -51 3 -60 -21 -88 -15 -18 -35 -31 -49
-31 -23 0 -35 -22 -35 -68 0 -30 37 -44 115 -44 100 -1 111 1 137 25 25 23 25
24 25 218 1 188 6 295 20 389 3 25 7 60 7 78 0 24 5 32 18 32 28 0 134 38 218
77 102 48 162 74 165 71 49 -69 90 -117 111 -133 37 -27 67 -57 100 -101 27
-35 28 -38 27 -179 0 -161 -5 -175 -59 -175 -20 0 -34 -5 -35 -12 0 -7 -2 -21
-4 -31 -4 -24 28 -51 63 -54 15 -1 36 -3 47 -6 36 -7 100 22 119 55 16 26 19
58 23 212 3 152 6 223 12 245 2 9 74 -77 91 -109 10 -19 21 -64 25 -100 15
-129 24 -189 31 -213 6 -20 -30 -67 -52 -67 -14 0 -24 -22 -24 -56 0 -26 9
-29 94 -38 51 -5 106 15 148 54 21 19 21 23 3 285 -11 154 -13 336 -4 367 15
55 19 96 24 213 5 121 -10 219 -51 345 -13 41 -21 77 -16 80 4 4 20 16 35 27
15 12 23 24 18 27 -5 3 15 31 45 62 46 46 53 58 43 71 -8 9 -9 17 -3 21 14 9
64 84 64 95 0 5 -6 7 -14 4 -13 -5 -13 -1 -2 32 30 83 5 261 -46 334 -18 24
-58 41 -43 17 9 -15 -4 -12 -33 8 -52 36 -96 47 -183 47 -67 0 -91 -4 -105
-17 -11 -9 -31 -19 -45 -23 -15 -4 -54 -34 -86 -68 -68 -70 -89 -103 -71 -109
8 -3 9 -11 3 -24 -4 -10 -9 -21 -10 -24 -1 -3 -5 -12 -8 -20 -24 -52 2 -284
29 -273 8 3 17 -3 20 -13 4 -11 14 -27 21 -36 14 -15 11 -18 -24 -27 -102 -27
-181 -33 -346 -28 -95 4 -181 8 -192 10 -11 2 -38 8 -60 12 -41 7 -65 12 -101
19 -29 6 -113 66 -118 85 -3 9 -14 63 -26 121 -28 136 -40 180 -58 209 -8 13
-16 58 -19 100 -7 122 -35 201 -72 201 -10 0 -44 -24 -76 -52z m1375 -444 c7
-20 10 -51 7 -70 -6 -38 -32 -71 -42 -54 -10 17 -14 110 -4 110 5 0 9 11 9 25
0 37 17 31 30 -11z"/>
</g>
</svg>
